<svg width="339" height="352" viewBox="0 0 339 352" fill="none" xmlns="http://www.w3.org/2000/svg">
<path d="M115.447 214.576C128.647 213.511 141.802 219.058 149.568 229.982C157.572 240.784 163.47 253.013 170.48 264.353C174.968 271.612 181.052 279.055 185.531 286.624C189.757 292.727 193.641 296.195 195.133 303.826C199.674 327.06 186.663 346.097 163.619 350.706C152.126 351.96 140.818 349.872 132.137 341.188C127.854 336.902 123.916 329.346 120.604 324.043C114.768 314.767 109.003 305.448 103.309 296.085C97.6873 286.869 90.8753 276.563 86.0423 267.059C83.1843 261.438 82.5063 249.912 84.9823 244.046C89.8843 232.431 104.081 219.439 115.447 214.576Z" fill="#1EFFAC"/>
<path d="M217.756 214.168C220.183 213.885 223.14 213.934 225.592 213.991C243.619 214.408 261.698 214.414 279.727 214.332C292.996 214.272 303.104 214.126 313.183 223.984C320.501 231.139 324.614 240.949 324.586 251.183C324.678 261.042 320.763 270.517 313.737 277.435C305.184 285.979 297.217 287.064 285.777 287.093L238.313 287.146C222.712 287.245 204.763 290.012 192.055 279.677C184.423 273.467 179.594 264.461 178.646 254.667C176.183 230 195.034 216.037 217.756 214.168Z" fill="#1EFFAC"/>
<path d="M178.706 0.133812C178.944 0.113812 179.183 0.0898148 179.421 0.0738148C188.726 -0.586185 198.334 3.2348 205.276 9.3288C210.518 13.9298 245.526 70.9178 249.796 79.6208C251.723 83.5488 253.757 88.3798 253.976 92.7868C254.488 103.106 251.106 111.878 244.174 119.48C238.591 125.603 229.436 135.053 220.844 135.469C208.049 135.483 195.754 132.256 188.362 120.845C181.126 109.677 174.472 98.0648 167.563 86.6738C161.477 76.6398 154.865 66.9248 149.173 56.6938C135.354 30.9528 149.708 3.80581 178.706 0.133812Z" fill="#1EFFAC"/>
<path d="M57.6023 59.7008L104.015 59.7538C111.819 59.7618 126.363 59.3148 133.374 60.9258C137.628 61.8908 141.54 63.9908 144.695 67.0028C151.02 72.9288 159.689 90.1758 159.712 98.9228C159.741 107.762 156.214 116.241 149.925 122.452C140.37 131.843 131.557 133.058 118.988 133.041L74.3523 132.985C65.7833 133.027 49.8433 133.706 41.9613 131.837C36.3793 130.515 31.2443 127.743 27.0753 123.802C8.04432 105.584 14.3313 69.7148 39.8213 61.7248C46.4733 59.6398 50.7823 59.7578 57.6023 59.7008Z" fill="#1EFFAC"/>
<path d="M73.5393 140.595C83.6693 140.002 91.5933 141.266 99.9033 147.314C112.682 156.615 119.21 171.913 113.038 187.083C111.76 190.225 110.152 192.595 108.252 195.389C95.2333 214.538 82.0183 233.551 68.6263 252.442C62.2483 261.438 54.0323 267.815 42.8963 269.433C32.1403 270.647 23.7323 268.95 14.5593 262.914C2.62533 254.634 -2.80168 237.872 1.42032 224.081C3.26632 219.292 6.14633 214.28 9.12733 210.167C21.4753 193.133 33.4933 175.882 45.3763 158.526C52.6473 147.906 61.0663 142.768 73.5393 140.595Z" fill="#1EFFAC"/>
<path d="M295.508 78.5849C304.492 77.8789 313.382 78.9339 320.915 84.0439C338.762 96.1499 344.461 116.588 331.645 134.743C319.879 151.639 307.767 168.317 295.658 184.97C287.013 196.858 283.414 204.251 268.179 207.304C258.555 208.676 248.764 206.42 240.71 200.975C232.495 195.41 226.86 186.778 225.073 177.019C222.38 162.581 228.47 155.045 236.185 143.718C245.428 130.148 255.428 117.165 264.589 103.544C269.865 95.6979 275.839 86.9789 284.193 82.2639C287.833 80.2099 291.415 79.3439 295.508 78.5849Z" fill="#1EFFAC"/>
</svg>
